<svg width="31" height="32" fill="none" xmlns="http://www.w3.org/2000/svg"><path d="M5.832 31.835v-6.718c-1.583-1.445-2.812-3.1-3.687-4.967a13.575 13.575 0 01-1.313-5.827c0-3.932 1.377-7.274 4.132-10.026C7.719 1.544 11.064.168 14.999.168c3.237 0 6.132.967 8.684 2.902 2.552 1.935 4.21 4.445 4.973 7.53l2.009 7.957c.106.41.031.782-.225 1.114-.257.331-.604.497-1.042.497h-3.566v5.726c0 .712-.257 1.324-.77 1.837a2.507 2.507 0 01-1.837.77h-4.06v3.334h-2.094v-5.428h6.154a.5.5 0 00.369-.144.5.5 0 00.144-.369v-7.82h4.624l-1.724-6.971c-.65-2.621-2.064-4.75-4.24-6.386-2.177-1.637-4.644-2.455-7.4-2.455-3.347 0-6.196 1.163-8.546 3.489-2.35 2.326-3.526 5.16-3.526 8.503 0 1.732.354 3.373 1.06 4.922a12.924 12.924 0 002.998 4.126l.942.885v7.648H5.832zm9.006-9.327c.415 0 .76-.139 1.033-.415.273-.276.41-.619.41-1.027 0-.409-.139-.751-.415-1.028a1.394 1.394 0 00-1.027-.415c-.409 0-.751.138-1.028.415a1.394 1.394 0 00-.415 1.027 1.407 1.407 0 001.442 1.443zm-.977-4.949h2.013c0-.598.098-1.118.295-1.56.196-.44.572-.961 1.128-1.562.489-.545.96-1.096 1.41-1.655.45-.559.676-1.26.676-2.101 0-1.104-.42-2.037-1.258-2.8-.838-.761-1.892-1.142-3.162-1.142a4.836 4.836 0 00-2.772.846 4.813 4.813 0 00-1.808 2.227l1.811.782a3.14 3.14 0 011.117-1.423 2.803 2.803 0 011.652-.538c.676 0 1.241.19 1.697.571.457.381.685.873.685 1.477a2.46 2.46 0 01-.545 1.586 19.03 19.03 0 01-1.237 1.388c-.556.573-.978 1.15-1.268 1.734-.29.584-.434 1.307-.434 2.17z" fill="#1C1B1F"/></svg>