<svg width="40" height="40" fill="none" xmlns="http://www.w3.org/2000/svg"><mask id="a" style="mask-type:alpha" maskUnits="userSpaceOnUse" x="0" y="0" width="40" height="40"><path fill="#D9D9D9" d="M0 0h40v40H0z"/></mask><g mask="url(#a)"><path d="M19.016 27.918h2.094v-9.583h-2.094v9.583zm.985-12.312c.34 0 .626-.113.858-.34.232-.225.347-.508.347-.848 0-.348-.115-.64-.347-.872a1.16 1.16 0 00-.857-.35c-.348 0-.636.116-.864.35a1.198 1.198 0 00-.342.872c0 .34.116.623.347.849.232.226.517.339.858.339zm.01 20.229c-2.192 0-4.247-.416-6.166-1.247a16.081 16.081 0 01-5.03-3.398 16.066 16.066 0 01-3.4-5.03c-.831-1.92-1.247-3.976-1.247-6.17 0-2.186.416-4.242 1.247-6.166A15.877 15.877 0 018.812 8.8a16.186 16.186 0 015.03-3.385c1.92-.831 3.977-1.247 6.17-1.247 2.187 0 4.242.416 6.166 1.247 1.924.83 3.599 1.959 5.024 3.383 1.425 1.425 2.554 3.1 3.385 5.027.832 1.926 1.248 3.981 1.248 6.166 0 2.192-.416 4.248-1.247 6.167a16.138 16.138 0 01-3.384 5.025c-1.425 1.431-3.1 2.564-5.026 3.4-1.926.834-3.982 1.252-6.167 1.252zm.004-2.094c3.819 0 7.06-1.336 9.727-4.008 2.666-2.672 3.999-5.92 3.999-9.746 0-3.818-1.332-7.06-3.994-9.726-2.663-2.666-5.911-4-9.746-4-3.816 0-7.06 1.332-9.732 3.995-2.671 2.662-4.007 5.91-4.007 9.745 0 3.816 1.336 7.06 4.007 9.732 2.672 2.672 5.92 4.008 9.746 4.008z" fill="#2B2A29"/></g></svg>