<svg width="28" height="40" fill="none" xmlns="http://www.w3.org/2000/svg"><path d="M14 39.156c-1.024 0-1.904-.35-2.64-1.05-.737-.7-1.133-1.562-1.188-2.586h7.656c-.055 1.024-.451 1.886-1.188 2.586-.736.7-1.616 1.05-2.64 1.05zM6.446 32.21v-2.513h15.108v2.513H6.446zm.192-5.79c-2.045-1.338-3.663-3.02-4.853-5.048C.595 19.346 0 17.085 0 14.59c0-3.848 1.371-7.143 4.114-9.886C6.857 1.96 10.152.59 14 .59c3.848 0 7.143 1.371 9.886 4.114C26.628 7.447 28 10.742 28 14.59c0 2.495-.592 4.756-1.775 6.782-1.183 2.027-2.805 3.71-4.864 5.048H6.638zm.839-2.512h13.067a11.368 11.368 0 003.633-4.045 10.996 10.996 0 001.31-5.273c0-3.18-1.12-5.89-3.359-8.128-2.24-2.24-4.948-3.36-8.128-3.36-3.18 0-5.889 1.12-8.128 3.36-2.24 2.239-3.36 4.948-3.36 8.128 0 1.885.437 3.643 1.31 5.273a11.299 11.299 0 003.655 4.045z" fill="#2B2A29"/></svg>