<svg width="40" height="40" fill="none" xmlns="http://www.w3.org/2000/svg"><mask id="a" style="mask-type:alpha" maskUnits="userSpaceOnUse" x="0" y="0" width="40" height="40"><path fill="#D9D9D9" d="M0 0h40v40H0z"/></mask><g mask="url(#a)"><path d="M14.101 34.165l-8.269-8.269V14.101l8.27-8.269h11.794l8.27 8.27v11.794l-8.27 8.27H14.101zm.962-7.767l4.936-4.925 4.936 4.925 1.474-1.463-4.936-4.936 4.936-4.936-1.474-1.475-4.936 4.936-4.936-4.936-1.464 1.475 4.925 4.936-4.925 4.936 1.464 1.463zm-.084 5.673h10.039l7.053-7.053V14.979l-7.053-7.053H14.979l-7.053 7.053v10.039l7.053 7.053z" fill="#2B2A29"/></g></svg>