<svg width="24" height="25" fill="none" xmlns="http://www.w3.org/2000/svg"><path fill="#fff" d="M0 .5h24v24H0z"/><path fill-rule="evenodd" clip-rule="evenodd" d="M7.455 8.167a1 1 0 00.826-.437L9.8 5.5h4.4l1.52 2.23a1 1 0 00.827.437h3.636a.84.84 0 01.586.235.758.758 0 01.232.542v9.778c0 .2-.08.395-.232.542a.84.84 0 01-.586.236H3.818a.84.84 0 01-.586-.236.758.758 0 01-.232-.542V8.944c0-.198.08-.394.232-.542a.84.84 0 01.586-.235h3.637zm0-1L9.273 4.5h5.454l1.819 2.667h3.636c.482 0 .945.187 1.286.52.34.334.532.786.532 1.257v9.778c0 .472-.192.924-.532 1.257a1.84 1.84 0 01-1.286.521H3.818a1.84 1.84 0 01-1.285-.52A1.758 1.758 0 012 18.721V8.944c0-.471.192-.923.533-1.257a1.84 1.84 0 011.285-.52h3.637zM15 13.5a3 3 0 11-6 0 3 3 0 016 0zm-3 4a4 4 0 100-8 4 4 0 000 8z" fill="#83878D"/></svg>