<svg width="25" height="24" fill="none" xmlns="http://www.w3.org/2000/svg"><mask id="a" style="mask-type:alpha" maskUnits="userSpaceOnUse" x="0" y="0" width="25" height="24"><path fill="#D9D9D9" d="M.5 0h24v24H.5z"/></mask><g mask="url(#a)"><path d="M4.73 21V10.232H3.5V5.808h5.142a1.378 1.378 0 01-.412-.625 2.503 2.503 0 01-.115-.76 2.3 2.3 0 01.696-1.688 2.3 2.3 0 011.689-.696c.383 0 .735.09 1.056.27.32.18.597.415.829.703.232-.292.508-.527.829-.706.32-.178.672-.267 1.055-.267a2.3 2.3 0 011.69.696 2.3 2.3 0 01.695 1.689c0 .26-.04.51-.117.753a1.459 1.459 0 01-.41.631H21.5v4.423h-1.23v10.77H4.73zm9.54-17.96a1.34 1.34 0 00-.987.397 1.34 1.34 0 00-.398.987c0 .392.132.72.398.986.265.266.594.398.986.398.393 0 .721-.132.987-.398a1.34 1.34 0 00.398-.986 1.34 1.34 0 00-.398-.987 1.34 1.34 0 00-.987-.398zM9.114 4.423c0 .392.133.72.398.986.266.266.595.398.987.398s.721-.132.986-.398a1.34 1.34 0 00.399-.986 1.34 1.34 0 00-.399-.987 1.34 1.34 0 00-.986-.398 1.34 1.34 0 00-.987.398 1.34 1.34 0 00-.398.987zM4.5 6.808v2.423H12V6.808H4.5zM12 20.001v-9.77H5.73v9.77H12zm1 0h6.27v-9.77H13v9.77zm7.5-10.77V6.808H13v2.423h7.5z" fill="#1C1B1F"/></g></svg>