<svg width="25" height="24" fill="none" xmlns="http://www.w3.org/2000/svg"><mask id="a" style="mask-type:alpha" maskUnits="userSpaceOnUse" x="0" y="0" width="25" height="24"><path fill="#D9D9D9" d="M.5 0h24v24H.5z"/></mask><g mask="url(#a)"><path d="M12.5 21.502a8.257 8.257 0 01-3.315-.67 8.608 8.608 0 01-2.696-1.818 8.607 8.607 0 01-1.82-2.697A8.256 8.256 0 014 13.002c0-1.18.223-2.285.67-3.315A8.607 8.607 0 016.488 6.99a8.607 8.607 0 012.696-1.82 8.256 8.256 0 013.315-.669c1.18 0 2.285.223 3.316.67a8.607 8.607 0 012.696 1.819 8.608 8.608 0 011.819 2.696c.446 1.03.67 2.136.67 3.315 0 1.18-.224 2.285-.67 3.315a8.609 8.609 0 01-1.82 2.697 8.609 8.609 0 01-2.695 1.819 8.256 8.256 0 01-3.316.67zm2.973-4.473l1.054-1.054-3.277-3.277V8.002h-1.5v5.304l3.723 3.723zM6.254 2.891l1.054 1.053L3.443 7.81 2.388 6.756l3.865-3.865zm12.492 0l3.866 3.865-1.054 1.054-3.866-3.866 1.054-1.053zM12.5 20.002c1.944 0 3.596-.68 4.958-2.042 1.361-1.362 2.042-3.014 2.042-4.958 0-1.944-.68-3.596-2.042-4.958-1.362-1.361-3.014-2.042-4.958-2.042-1.943 0-3.596.68-4.958 2.042C6.181 9.406 5.5 11.058 5.5 13.002c0 1.944.68 3.596 2.042 4.958 1.362 1.361 3.015 2.042 4.958 2.042z" fill="#1C1B1F"/></g></svg>