<svg width="24" height="24" fill="none" xmlns="http://www.w3.org/2000/svg"><mask id="a" style="mask-type:alpha" maskUnits="userSpaceOnUse" x="0" y="0" width="24" height="24"><path fill="#D9D9D9" d="M0 0h24v24H0z"/></mask><g mask="url(#a)"><path d="M12 21.498a8.255 8.255 0 01-3.315-.67 8.605 8.605 0 01-2.696-1.818 8.605 8.605 0 01-1.82-2.696 8.256 8.256 0 01-.669-3.316c0-1.18.223-2.284.67-3.315a8.607 8.607 0 011.819-2.696 8.607 8.607 0 012.696-1.82A8.256 8.256 0 0112 4.498c1.18 0 2.285.223 3.316.67a8.607 8.607 0 012.696 1.819 8.609 8.609 0 011.819 2.696c.446 1.03.67 2.136.67 3.315a8.26 8.26 0 01-.67 3.316 8.607 8.607 0 01-1.82 2.696 8.605 8.605 0 01-2.695 1.819 8.254 8.254 0 01-3.316.67zm2.973-4.473l1.054-1.054-3.277-3.277V7.998h-1.5v5.304l3.723 3.723zM5.754 2.887L6.808 3.94 2.943 7.806 1.888 6.752l3.865-3.865zm12.492 0l3.866 3.865-1.054 1.054-3.866-3.865 1.054-1.054zM12 19.998c1.944 0 3.596-.68 4.958-2.042C18.319 16.594 19 14.942 19 12.998c0-1.943-.68-3.596-2.042-4.957C15.596 6.679 13.944 5.998 12 5.998c-1.943 0-3.596.681-4.958 2.043C5.681 9.402 5 11.055 5 12.998c0 1.944.68 3.596 2.042 4.958 1.362 1.361 3.015 2.042 4.958 2.042z" fill="#1C1B1F"/></g></svg>