<svg width="20" height="20" fill="none" xmlns="http://www.w3.org/2000/svg"><mask id="a" style="mask-type:alpha" maskUnits="userSpaceOnUse" x="0" y="0" width="20" height="20"><path fill="#D9D9D9" d="M0 0h20v20H0z"/></mask><g mask="url(#a)"><path d="M7.064 19.005L5.42 16.257l-3.125-.702.294-3.177-2.106-2.38L2.588 7.62l-.294-3.177 3.125-.702L7.064.992 10 2.25 12.936.992 14.58 3.74l3.126.702-.295 3.177 2.106 2.38-2.106 2.38.295 3.176-3.126.702-1.645 2.748L10 17.747l-2.936 1.258zm1.874-5.877l5.087-5.067-1.203-1.18-3.884 3.863-1.76-1.762-1.203 1.204 2.963 2.942z" fill="#E22429"/></g></svg>