<svg width="40" height="40" fill="none" xmlns="http://www.w3.org/2000/svg"><mask id="a" style="mask-type:alpha" maskUnits="userSpaceOnUse" x="0" y="0" width="40" height="40"><path fill="#D9D9D9" d="M0 0h40v40H0z"/></mask><g mask="url(#a)"><path d="M9.594 23.335c0 1.826.451 3.523 1.353 5.09a10.057 10.057 0 003.707 3.725 4.488 4.488 0 01-.368-1.016 4.69 4.69 0 01-.12-1.049c0-.771.149-1.498.445-2.18a5.943 5.943 0 011.274-1.852L20 22.005l4.131 4.048a5.85 5.85 0 011.266 1.853c.29.681.436 1.408.436 2.179 0 .35-.04.7-.12 1.049-.08.348-.202.687-.367 1.016a10.057 10.057 0 003.707-3.725 10.028 10.028 0 001.353-5.09c0-1.442-.288-2.83-.864-4.163a11.58 11.58 0 00-2.48-3.617 7.023 7.023 0 01-1.79.897 6.013 6.013 0 01-1.897.31c-1.714 0-3.167-.572-4.357-1.716-1.19-1.145-1.831-2.582-1.92-4.311v-.406a22.849 22.849 0 00-3.163 2.93 19.634 19.634 0 00-2.36 3.25 15.677 15.677 0 00-1.473 3.417 12.117 12.117 0 00-.508 3.409zM20 24.938l-2.657 2.615a3.767 3.767 0 00-.801 1.166 3.37 3.37 0 00-.281 1.366c0 1.013.363 1.875 1.089 2.588.726.712 1.61 1.068 2.65 1.068 1.04 0 1.924-.356 2.65-1.068.726-.713 1.09-1.575 1.09-2.588 0-.497-.094-.959-.282-1.384a3.663 3.663 0 00-.801-1.148L20 24.938zm-.833-18.446v4.01c0 1.18.406 2.168 1.22 2.968.812.799 1.808 1.198 2.988 1.198.51 0 .997-.096 1.46-.288a4.081 4.081 0 001.274-.85l.734-.74c1.756 1.124 3.138 2.624 4.146 4.499a12.58 12.58 0 011.51 6.046c0 3.487-1.21 6.442-3.634 8.865-2.423 2.423-5.378 3.635-8.865 3.635s-6.442-1.212-8.865-3.635S7.5 26.822 7.5 23.335c0-3.209 1.045-6.319 3.133-9.331 2.09-3.012 4.934-5.516 8.534-7.512z" fill="#1C1B1F"/></g></svg>