<svg width="40" height="41" fill="none" xmlns="http://www.w3.org/2000/svg"><mask id="a" style="mask-type:alpha" maskUnits="userSpaceOnUse" x="0" y="0" width="40" height="41"><path fill="#D9D9D9" d="M0 .5h40v40H0z"/></mask><g mask="url(#a)"><path d="M8.44 34.665a2.509 2.509 0 01-1.839-.768 2.509 2.509 0 01-.768-1.839V8.938c0-.713.256-1.326.768-1.838a2.509 2.509 0 011.84-.768H31.56c.714 0 1.327.256 1.839.768s.768 1.125.768 1.839v5.223h-2.094V8.94a.5.5 0 00-.145-.369.499.499 0 00-.368-.144H8.44a.5.5 0 00-.368.144.5.5 0 00-.145.369v23.12a.5.5 0 00.145.368.5.5 0 00.368.144h23.12a.5.5 0 00.369-.144.5.5 0 00.144-.369v-5.206h2.094v5.206c0 .715-.256 1.327-.768 1.84a2.509 2.509 0 01-1.84.767H8.44zm14.1-6.931c-.792 0-1.471-.28-2.038-.842a2.753 2.753 0 01-.85-2.03v-8.71c0-.792.283-1.469.85-2.03a2.793 2.793 0 012.037-.841h10.44c.8 0 1.483.28 2.05.841.566.561.85 1.238.85 2.03v8.71c0 .792-.284 1.469-.85 2.03a2.807 2.807 0 01-2.05.842h-10.44zm10.732-2.094a.504.504 0 00.512-.513v-9.24a.494.494 0 00-.15-.363.49.49 0 00-.362-.15H22.259a.495.495 0 00-.364.15c-.1.1-.15.221-.15.364v9.239a.504.504 0 00.513.513h11.014zm-6.35-2.562a2.47 2.47 0 001.82-.758 2.513 2.513 0 00.752-1.838c0-.718-.254-1.324-.762-1.82a2.512 2.512 0 00-1.817-.742c-.713 0-1.323.247-1.83.742a2.446 2.446 0 00-.76 1.82c0 .72.252 1.334.757 1.838a2.504 2.504 0 001.84.758z" fill="#1C1B1F"/></g></svg>