<svg width="40" height="41" fill="none" xmlns="http://www.w3.org/2000/svg"><mask id="a" style="mask-type:alpha" maskUnits="userSpaceOnUse" x="0" y="0" width="40" height="41"><path fill="#D9D9D9" d="M0 .5h40v40H0z"/></mask><g mask="url(#a)"><path d="M8.44 36.331a2.51 2.51 0 01-1.84-.766 2.51 2.51 0 01-.766-1.84V10.199c0-.716.255-1.33.766-1.84a2.51 2.51 0 011.84-.767h2.82v-3.12h2.255v3.12H26.55v-3.12h2.201v3.12h2.81c.716 0 1.33.256 1.84.766.511.511.767 1.125.767 1.841v23.526a2.51 2.51 0 01-.766 1.84 2.51 2.51 0 01-1.841.767H8.44zm0-2.093h23.12a.49.49 0 00.353-.16.49.49 0 00.16-.353v-16.25H7.927v16.25a.49.49 0 00.16.352.49.49 0 00.353.16zM7.927 15.38h24.146v-5.182a.49.49 0 00-.16-.352.49.49 0 00-.353-.16H8.44a.49.49 0 00-.352.16.49.49 0 00-.16.352v5.182zM20 23.96c-.408 0-.756-.144-1.043-.431a1.421 1.421 0 01-.431-1.044c0-.408.143-.755.43-1.043a1.421 1.421 0 011.044-.43c.408 0 .756.143 1.043.43.288.288.431.635.431 1.043 0 .409-.143.756-.43 1.044a1.42 1.42 0 01-1.044.43zm-6.666 0c-.409 0-.756-.144-1.044-.431a1.421 1.421 0 01-.43-1.044c0-.408.143-.755.43-1.043a1.421 1.421 0 011.044-.43c.408 0 .755.143 1.043.43.287.288.43.635.43 1.043 0 .409-.143.756-.43 1.044a1.42 1.42 0 01-1.043.43zm13.333 0a1.42 1.42 0 01-1.043-.431 1.421 1.421 0 01-.431-1.044c0-.408.143-.755.43-1.043a1.42 1.42 0 011.044-.43c.408 0 .756.143 1.043.43.287.288.431.635.431 1.043 0 .409-.143.756-.43 1.044a1.421 1.421 0 01-1.044.43zM20 30.498a1.42 1.42 0 01-1.043-.43 1.421 1.421 0 01-.431-1.044c0-.408.143-.756.43-1.043A1.42 1.42 0 0120 27.549c.408 0 .756.144 1.043.432.288.287.431.635.431 1.043 0 .408-.143.756-.43 1.043a1.421 1.421 0 01-1.044.431zm-6.666 0c-.409 0-.756-.143-1.044-.43a1.421 1.421 0 01-.43-1.044c0-.408.143-.756.43-1.043a1.42 1.42 0 011.044-.432c.408 0 .755.144 1.043.432.287.287.43.635.43 1.043 0 .408-.143.756-.43 1.043a1.421 1.421 0 01-1.043.431zm13.333 0a1.42 1.42 0 01-1.043-.43 1.421 1.421 0 01-.431-1.044c0-.408.143-.756.43-1.043a1.42 1.42 0 011.044-.432c.408 0 .756.144 1.043.432.287.287.431.635.431 1.043 0 .408-.143.756-.43 1.043a1.421 1.421 0 01-1.044.431z" fill="#1C1B1F"/></g></svg>