<svg width="40" height="41" fill="none" xmlns="http://www.w3.org/2000/svg"><mask id="a" style="mask-type:alpha" maskUnits="userSpaceOnUse" x="0" y="0" width="40" height="41"><path fill="#D9D9D9" d="M0 .5h40v40H0z"/></mask><g mask="url(#a)"><path d="M11.666 25.929h16.667v-2.094H11.667v2.094zm0-5.428h6.154v-1.987h-2.743a8.368 8.368 0 012.227-1.758A5.565 5.565 0 0120 16.078c1.401 0 2.652.406 3.751 1.218 1.1.812 1.876 1.88 2.329 3.205h2.07c-.463-1.88-1.451-3.419-2.963-4.615-1.512-1.197-3.24-1.795-5.187-1.795-1.222 0-2.38.273-3.475.817a9.399 9.399 0 00-2.871 2.209v-2.77h-1.988v6.154zm8.337 15.834c-2.179 0-4.23-.416-6.153-1.247a16.06 16.06 0 01-5.037-3.398 16.052 16.052 0 01-3.4-5.035c-.83-1.922-1.247-3.973-1.247-6.15 0-2.19.416-4.25 1.247-6.176.831-1.927 1.964-3.603 3.398-5.029a16.172 16.172 0 015.034-3.385c1.923-.831 3.973-1.247 6.152-1.247 2.19 0 4.248.416 6.175 1.247 1.927.83 3.603 1.959 5.029 3.383 1.425 1.425 2.553 3.1 3.385 5.027.831 1.926 1.247 3.984 1.247 6.174 0 2.178-.416 4.229-1.247 6.152a16.18 16.18 0 01-3.383 5.037c-1.425 1.435-3.1 2.568-5.026 3.4-1.927.83-3.985 1.247-6.174 1.247zM20 34.24c3.827 0 7.074-1.336 9.74-4.008 2.666-2.672 4-5.916 4-9.732 0-3.827-1.334-7.074-4-9.74-2.666-2.666-5.913-4-9.74-4-3.817 0-7.06 1.334-9.732 4-2.672 2.666-4.008 5.913-4.008 9.74 0 3.816 1.336 7.06 4.008 9.732C12.94 32.904 16.183 34.24 20 34.24z" fill="#1C1B1F"/></g></svg>