<svg width="24" height="24" fill="none" xmlns="http://www.w3.org/2000/svg"><mask id="a" style="mask-type:alpha" maskUnits="userSpaceOnUse" x="0" y="0" width="24" height="24"><path fill="#D9D9D9" d="M0 0h24v24H0z"/></mask><g mask="url(#a)"><path d="M8.346 13.558h7.308V13.2c0-.63-.34-1.145-1.018-1.544-.68-.399-1.558-.598-2.636-.598s-1.957.199-2.636.598c-.678.399-1.018.913-1.018 1.544v.358zM12 9.75c.486 0 .899-.17 1.24-.51.34-.341.51-.754.51-1.24s-.17-.9-.51-1.24c-.341-.34-.754-.51-1.24-.51s-.9.17-1.24.51c-.34.34-.51.754-.51 1.24s.17.899.51 1.24c.34.34.754.51 1.24.51zM2.5 21.038V4.308c0-.505.175-.933.525-1.283.35-.35.778-.525 1.283-.525h15.384c.505 0 .933.175 1.283.525.35.35.525.778.525 1.283v11.384c0 .505-.175.933-.525 1.283-.35.35-.778.525-1.283.525H6.038L2.5 21.038zM5.4 16h14.292a.294.294 0 00.212-.096.294.294 0 00.096-.212V4.308a.294.294 0 00-.096-.212.294.294 0 00-.212-.096H4.308a.294.294 0 00-.212.096.294.294 0 00-.096.212v13.077L5.4 16z" fill="#1C1B1F"/></g></svg>