<svg width="19" height="21" fill="none" xmlns="http://www.w3.org/2000/svg"><path fill-rule="evenodd" clip-rule="evenodd" d="M6.44 1.44A1.5 1.5 0 017.5 1h4A1.5 1.5 0 0113 2.5V4H6V2.5c0-.398.158-.78.44-1.06zM5 4V2.5A2.5 2.5 0 017.5 0h4A2.5 2.5 0 0114 2.5V4h4.5a.5.5 0 010 1H17v13.5a2.5 2.5 0 01-2.5 2.5h-10A2.5 2.5 0 012 18.5V5H.5a.5.5 0 010-1H5zM3 5v13.5A1.5 1.5 0 004.5 20h10a1.5 1.5 0 001.5-1.5V5H3zm9.854 4.146a.5.5 0 010 .708L10.207 12.5l2.647 2.646a.5.5 0 01-.708.708L9.5 13.207l-2.646 2.647a.5.5 0 01-.708-.708L8.793 12.5 6.146 9.854a.5.5 0 11.708-.708L9.5 11.793l2.646-2.647a.5.5 0 01.708 0z" fill="#2B2A29"/></svg>