<svg width="14" height="14" fill="none" xmlns="http://www.w3.org/2000/svg"><path d="M2.901 10.703h5.583V9.62H2.901v1.083zm0-3.25h7.583V6.37H2.901v1.083zm0-3.25h7.583V3.12H2.901v1.083zm-1.452 9.292c-.375 0-.692-.13-.951-.389a1.294 1.294 0 01-.389-.951V1.668c0-.375.13-.692.389-.951a1.29 1.29 0 01.951-.389h10.487c.375 0 .693.13.951.389.26.259.389.576.389.95v10.488c0 .375-.13.692-.389.951-.258.26-.576.389-.95.389H1.448zm0-1.083h10.487a.245.245 0 00.177-.08.245.245 0 00.08-.177V1.668a.244.244 0 00-.08-.176.245.245 0 00-.177-.08H1.45a.245.245 0 00-.176.08.245.245 0 00-.08.176v10.487c0 .064.026.123.08.176.053.054.112.08.176.08z" fill="#83878D"/></svg>