<svg width="36" height="34" fill="none" xmlns="http://www.w3.org/2000/svg"><path d="M12.73 33.439L9.757 28.38l-5.788-1.21.602-5.796L.79 16.997l3.781-4.361-.602-5.787 5.788-1.22L12.731.555 18 2.89 23.269.555l3.002 5.074 5.771 1.22-.613 5.787 3.782 4.36-3.782 4.38.613 5.796-5.77 1.21-3.003 5.057-5.27-2.336-5.268 2.336zm.924-2.724L18 28.896l4.425 1.819 2.586-4.08 4.724-1.14-.451-4.84 3.225-3.658-3.225-3.71.45-4.85-4.723-1.079-2.637-4.08L18 5.099l-4.426-1.82-2.585 4.08-4.724 1.079.45 4.85-3.224 3.71 3.225 3.658-.451 4.89 4.724 1.09 2.665 4.08zm2.579-8.564l8.856-8.812-1.536-1.464-7.32 7.286-3.77-3.842-1.553 1.537 5.323 5.294z" fill="#1C1B1F"/></svg>