<svg width="75" height="75" fill="none" xmlns="http://www.w3.org/2000/svg"><circle cx="37.5" cy="37.5" r="37.5" fill="#E22429"/><path d="M40.526 16.414l4.208 6.057c1.194-1.826 2.262-3.326 3.187-4.915.543-.935-.206-1.376-.993-1.49-.899-.13-1.695-.438-1.356-1.42.152-.454 1.06-.908 1.637-.922 3.67-.081 7.345-.101 11.013.017 1.58 0 1.831.718 1.831 1.227-.081 1.016-.678 1.233-1.597 1.375a3.195 3.195 0 00-2.841 2.93 24.764 24.764 0 00-.136 3.212V58.21c0 2.73-.125 2.91-2.848 2.91-11.691 0-23.396-.04-35.077-.06-1.275 0-2.374-.37-2.34-1.817.034-1.446 1.089-1.84 2.39-1.771a12.9 12.9 0 001.357-.051c2.9-.153 3.79-1.06 3.798-4.001.013-10.949.013-21.902 0-32.86 0-2.951-.655-3.564-3.605-3.578-.563 0-1.129-.02-1.695 0-1.275.055-2.16-.437-2.126-1.795.034-1.301.94-1.586 2.123-1.575 7.344.044 14.685.04 22.04.054.847 0 1.722-.129 2.532.047.53.115 1.298.428 1.434 1.016.18.773-.39 1.004-1.176 1.281-.436.154-.93.193-1.76.403zm-8.755.84c-1.448-.074-2.15.488-2.319 1.667a16.636 16.636 0 00-.166 2.371 5849.19 5849.19 0 000 22.166V53.78c0 2.809.658 3.483 3.506 3.55 2.428.055 4.862.13 7.28-.03a17.648 17.648 0 004.757-.976c4.293-1.541 7.64-7.314 6.782-11.579-.263.06-.518.144-.763.254-2.638 1.545-5.52 1.887-8.498 1.718-7.415-.424-10.572-3.757-10.579-11.18V17.255zm12.4 8.527c-1.21 1.772-2.17 3.154-3.106 4.553-.793 1.192-.881 2.189.75 2.771.301.105.818.382.729.793-.088.406-.597.576-1.045.616a40.415 40.415 0 01-3.896.055c-1.017-.027-1.376.403-1.407 1.405-.125 4.405 1.974 8.47 7.565 8.28.62-.02 1.24 0 1.861-.017 5.04-.18 7.864-3.222 7.752-8.27-.02-1.015-.34-1.45-1.384-1.395-1.468.075-2.94.122-4.408.071-.468-.017-1.386-.17-1.386-.58 0-.626.78-.744 1.196-1.08.325-.221.665-.42 1.018-.596l-4.239-6.606zm8.89 7.551c0-5.17 0-9.763-.02-14.353a2.37 2.37 0 00-.413-1.095c-.889-1.504-2.035-1.582-3.011-.18-1.17 1.654-2.347 3.307-3.391 5.049a2.16 2.16 0 00-.027 1.883c1.502 2.371 3.113 4.685 4.767 6.958.461.61 1.204 1.017 2.096 1.738zm-16.665-.142c.946-.705 1.733-1.057 2.177-1.66 1.441-1.948 2.818-3.95 4.069-6.017a2.214 2.214 0 00-.081-1.92c-1.248-2.01-2.615-3.947-4.022-5.85-.339-.472-.776-1.054-1.54-1.054-.762.142-.748 1.243-.759 1.873-.068 4.228-.037 8.47-.023 12.683.006.481.088.962.18 1.945z" fill="#fff"/></svg>