<svg width="57" height="46" fill="none" xmlns="http://www.w3.org/2000/svg"><path d="M13.974 46c-2.697 0-4.903-.548-6.62-1.643a13.868 13.868 0 01-4.228-4.198 15.315 15.315 0 01-2.574-6.39C.184 31.459 0 29.572 0 28.112c0-5.963 1.532-11.378 4.597-16.246C7.66 6.997 12.442 3.042 18.939 0l1.654 3.286c-3.8 1.582-7.11 4.076-9.928 7.484-2.697 3.407-4.046 6.875-4.046 10.405 0 1.46.184 2.738.552 3.833 1.961-1.582 4.229-2.373 6.803-2.373 3.187 0 5.945 1.034 8.274 3.103 2.33 2.069 3.494 4.929 3.494 8.58 0 3.407-1.165 6.206-3.494 8.396C19.92 44.904 17.161 46 13.974 46zm31.258 0c-2.697 0-4.903-.548-6.62-1.643a13.868 13.868 0 01-4.228-4.198 15.314 15.314 0 01-2.574-6.39c-.368-2.311-.552-4.198-.552-5.658 0-5.963 1.532-11.378 4.597-16.246C38.919 6.997 43.7 3.042 50.197 0l1.655 3.286c-3.8 1.582-7.11 4.076-9.93 7.484-2.696 3.407-4.045 6.875-4.045 10.405 0 1.46.184 2.738.552 3.833 1.961-1.582 4.23-2.373 6.803-2.373 3.187 0 5.945 1.034 8.275 3.103C55.836 27.807 57 30.667 57 34.318c0 3.407-1.164 6.206-3.493 8.396-2.33 2.19-5.088 3.286-8.275 3.286z" fill="#2B2A29"/></svg>