<svg width="22" height="16" fill="none" xmlns="http://www.w3.org/2000/svg"><path d="M12.94 4.559a.5.5 0 01-.5.5c-3.78 0-9.493 2.906-11.908 9.912h0c-.057.166-.027.257.005.309.04.065.126.14.275.184a.9.9 0 00.946-.29l.388.31-.388-.31c2.617-3.284 6.217-4.692 10.683-4.692a.5.5 0 01.5.5v3.952c0 .111.057.192.138.228a.38.38 0 00.115.013.359.359 0 00.201-.103.467.467 0 01.02-.018l8.02-7.104a.218.218 0 000-.31L13.415.587a.475.475 0 01-.02-.02.346.346 0 00-.155-.065l-.3 4.057zm0 0V.755c0-.111.058-.192.14-.228m-.14 4.032l.14-4.032m0 0a.315.315 0 01.16-.025l-.16.025z" stroke="#2B2A29" stroke-linejoin="round"/></svg>