<svg width="24" height="24" fill="none" xmlns="http://www.w3.org/2000/svg"><path d="M12 3.322l2.643 5.243a.5.5 0 00.376.27l5.89.842-4.254 4.057a.5.5 0 00-.148.448l1.007 5.744-5.285-2.721a.5.5 0 00-.458 0l-5.285 2.72 1.006-5.743a.5.5 0 00-.147-.448L3.091 9.677l5.89-.843a.5.5 0 00.375-.27L12 3.323z" stroke="#2B2A29" stroke-linecap="round" stroke-linejoin="round"/><path fill-rule="evenodd" clip-rule="evenodd" d="M15 8.16l-3-5.95-3.09 6.13L2 9.327l5 4.768-1.18 6.735L12 17.65l3 1.544V8.161z" fill="#2B2A29"/></svg>