<svg width="24" height="25" fill="none" xmlns="http://www.w3.org/2000/svg"><path fill-rule="evenodd" clip-rule="evenodd" d="M4 6.5h9a1 1 0 011 1v9a1 1 0 01-1 1H4a1 1 0 01-1-1v-9a1 1 0 011-1zm11 9.033v.967a2 2 0 01-2 2H4a2 2 0 01-2-2v-9a2 2 0 012-2h9a2 2 0 012 2v.967h1.074a1.5 1.5 0 00.817-.243l3.292-2.139c.997-.649 2.317.068 2.317 1.258v9.314c0 1.19-1.32 1.907-2.317 1.258l-3.292-2.14a1.5 1.5 0 00-.817-.242H15zm0-1h1.074a2.5 2.5 0 011.362.404l3.291 2.14a.5.5 0 00.773-.42V7.343a.5.5 0 00-.773-.42l-3.29 2.14a2.5 2.5 0 01-1.363.404H15v5.066z" fill="#2B2A29"/></svg>